# xmcd
#
# Track frame offsets:
#	150
#	13932
#	25580
#	37332
#	51417
#	65140
#	81690
#	100302
#	109907
#	122460
#
# Disc length: 1787 seconds
#
# Revision: 0
# Processed by: cddbd v1.4PL0 Copyright (c) Steve Scherf et al.
# Submitted via: dBpowerAMP V4.0
#
DISCID=9106f90a
DTITLE=Johnny Cash - The Best Of Johnny Cash
DYEAR=1900
DGENRE=Country
TTITLE0=Don't Take Your Guns To Town
TTITLE1=I Walk The Line
TTITLE2=Ring Of Fire
TTITLE3=Orange Blossom Special
TTITLE4=It Ain't Me Babe
TTITLE5=The City Of New Orleans
TTITLE6=Sunday Morning Coming Down
TTITLE7=What Do I Care
TTITLE8=Folsom Prison Blues (Live)
TTITLE9=I Still Miss Someone
EXTD=What can I say?  It's Johnny Cash
EXTT0=
EXTT1=
EXTT2=
EXTT3=
EXTT4=
EXTT5=
EXTT6=
EXTT7=
EXTT8=
EXTT9=
PLAYORDER=
